<svg xmlns="http://www.w3.org/2000/svg" viewBox="0 0 1200 700" role="img" aria-labelledby="title desc">
  <title id="title">Mina Cezairli portfolio thumbnail</title>
  <desc id="desc">A minimal black-and-white computer-inspired airspace map with strategic cyan and yellow accents.</desc>
  <defs>
    <linearGradient id="screen" x1="0" y1="0" x2="1" y2="1">
      <stop offset="0" stop-color="#050505"/>
      <stop offset="0.58" stop-color="#111111"/>
      <stop offset="1" stop-color="#050505"/>
    </linearGradient>
    <filter id="glow" x="-50%" y="-50%" width="200%" height="200%">
      <feGaussianBlur stdDeviation="5" result="blur"/>
      <feMerge><feMergeNode in="blur"/><feMergeNode in="SourceGraphic"/></feMerge>
    </filter>
  </defs>

  <rect width="1200" height="700" fill="#050505"/>
  <rect x="42" y="42" width="1116" height="616" fill="url(#screen)" stroke="#f4f4f0" stroke-opacity="0.55" stroke-width="2"/>

  <g opacity="0.13" stroke="#f4f4f0" stroke-width="1">
    <path d="M42 130H1158M42 218H1158M42 306H1158M42 394H1158M42 482H1158M42 570H1158"/>
    <path d="M134 42V658M226 42V658M318 42V658M410 42V658M502 42V658M594 42V658M686 42V658M778 42V658M870 42V658M962 42V658M1054 42V658"/>
  </g>

  <g fill="none" stroke="#f4f4f0" stroke-opacity="0.18" stroke-width="3">
    <circle cx="612" cy="360" r="92"/>
    <circle cx="612" cy="360" r="184"/>
    <circle cx="612" cy="360" r="276"/>
    <circle cx="612" cy="360" r="368"/>
  </g>

  <g fill="none" stroke="#f4f4f0" stroke-width="5" stroke-linejoin="miter" opacity="0.35">
    <path d="M135 115 420 168 505 332 363 555 145 612"/>
    <path d="M505 332 742 212 1030 274 1086 604"/>
    <path d="M420 168 742 212 890 82"/>
  </g>

  <g fill="none" stroke-linecap="square" filter="url(#glow)">
    <path d="M82 512 C248 342 392 316 556 365 S838 500 1120 170" stroke="#00e5ff" stroke-width="9"/>
    <path d="M126 166 C306 222 386 468 612 430 S876 254 1085 408" stroke="#f4f4f0" stroke-width="5" opacity="0.8"/>
    <path d="M262 646 C334 456 520 430 710 290 S940 136 1108 76" stroke="#ffcc00" stroke-width="5" opacity="0.82"/>
  </g>

  <g fill="#050505" stroke-width="4">
    <circle cx="556" cy="365" r="13" stroke="#00e5ff"/>
    <circle cx="742" cy="212" r="13" stroke="#f4f4f0"/>
    <circle cx="612" cy="430" r="13" stroke="#ffcc00"/>
    <circle cx="876" cy="254" r="13" stroke="#f4f4f0"/>
  </g>

  <g font-family="IBM Plex Mono, SFMono-Regular, Consolas, monospace" letter-spacing="3" text-transform="uppercase">
    <text x="78" y="104" fill="#00e5ff" font-size="24" font-weight="700">&gt; MINA CEZAIRLI</text>
    <text x="78" y="156" fill="#f4f4f0" font-size="50" font-weight="800">AIRSPACE STRUCTURE</text>
    <text x="80" y="196" fill="#a7a7a7" font-size="22">controller mental models / sectors / trajectories</text>
  </g>

  <g font-family="IBM Plex Mono, SFMono-Regular, Consolas, monospace" font-size="16" fill="#737373" letter-spacing="2">
    <text x="78" y="620">profile.exe</text>
    <text x="972" y="620" fill="#ffcc00">FL240</text>
  </g>
</svg>
